<svg width="38" height="38" viewBox="0 0 38 38" fill="none" xmlns="http://www.w3.org/2000/svg">
<path fill-rule="evenodd" clip-rule="evenodd" d="M14.465 8.066C15.638 8.012 16.012 8 19 8C21.988 8 22.362 8.013 23.534 8.066C24.706 8.119 25.506 8.306 26.206 8.577C26.939 8.854 27.604 9.287 28.154 9.847C28.714 10.396 29.146 11.06 29.422 11.794C29.694 12.494 29.88 13.294 29.934 14.464C29.988 15.639 30 16.013 30 19C30 21.988 29.987 22.362 29.934 23.535C29.881 24.705 29.694 25.505 29.422 26.205C29.146 26.9391 28.7133 27.6042 28.154 28.154C27.604 28.714 26.939 29.146 26.206 29.422C25.506 29.694 24.706 29.88 23.536 29.934C22.362 29.988 21.988 30 19 30C16.012 30 15.638 29.987 14.465 29.934C13.295 29.881 12.495 29.694 11.795 29.422C11.0609 29.146 10.3958 28.7133 9.846 28.154C9.28638 27.6047 8.85331 26.9399 8.577 26.206C8.306 25.506 8.12 24.706 8.066 23.536C8.012 22.361 8 21.987 8 19C8 16.012 8.013 15.638 8.066 14.466C8.119 13.294 8.306 12.494 8.577 11.794C8.85372 11.0601 9.28712 10.3953 9.847 9.846C10.396 9.2865 11.0605 8.85344 11.794 8.577C12.494 8.306 13.294 8.12 14.464 8.066H14.465ZM23.445 10.046C22.285 9.993 21.937 9.982 19 9.982C16.063 9.982 15.715 9.993 14.555 10.046C13.482 10.095 12.9 10.274 12.512 10.425C11.999 10.625 11.632 10.862 11.247 11.247C10.882 11.6021 10.6012 12.0343 10.425 12.512C10.274 12.9 10.095 13.482 10.046 14.555C9.993 15.715 9.982 16.063 9.982 19C9.982 21.937 9.993 22.285 10.046 23.445C10.095 24.518 10.274 25.1 10.425 25.488C10.601 25.965 10.882 26.398 11.247 26.753C11.602 27.118 12.035 27.399 12.512 27.575C12.9 27.726 13.482 27.905 14.555 27.954C15.715 28.007 16.062 28.018 19 28.018C21.938 28.018 22.285 28.007 23.445 27.954C24.518 27.905 25.1 27.726 25.488 27.575C26.001 27.375 26.368 27.138 26.753 26.753C27.118 26.398 27.399 25.965 27.575 25.488C27.726 25.1 27.905 24.518 27.954 23.445C28.007 22.285 28.018 21.937 28.018 19C28.018 16.063 28.007 15.715 27.954 14.555C27.905 13.482 27.726 12.9 27.575 12.512C27.375 11.999 27.138 11.632 26.753 11.247C26.3979 10.8821 25.9657 10.6012 25.488 10.425C25.1 10.274 24.518 10.095 23.445 10.046ZM17.595 22.391C18.3797 22.7176 19.2534 22.7617 20.0669 22.5157C20.8805 22.2697 21.5834 21.7489 22.0556 21.0422C22.5278 20.3356 22.7401 19.4869 22.656 18.6411C22.572 17.7953 22.197 17.005 21.595 16.405C21.2112 16.0215 20.7472 15.7278 20.2363 15.5451C19.7255 15.3625 19.1804 15.2954 18.6405 15.3486C18.1006 15.4019 17.5792 15.5742 17.1138 15.8531C16.6485 16.1321 16.2507 16.5107 15.9493 16.9619C15.6479 17.413 15.4502 17.9253 15.3705 18.462C15.2908 18.9986 15.3312 19.5463 15.4885 20.0655C15.6459 20.5847 15.9165 21.0626 16.2807 21.4647C16.645 21.8668 17.0938 22.1832 17.595 22.391ZM15.002 15.002C15.527 14.477 16.1503 14.0605 16.8363 13.7764C17.5223 13.4922 18.2575 13.346 19 13.346C19.7425 13.346 20.4777 13.4922 21.1637 13.7764C21.8497 14.0605 22.473 14.477 22.998 15.002C23.523 15.527 23.9395 16.1503 24.2236 16.8363C24.5078 17.5223 24.654 18.2575 24.654 19C24.654 19.7425 24.5078 20.4777 24.2236 21.1637C23.9395 21.8497 23.523 22.473 22.998 22.998C21.9377 24.0583 20.4995 24.654 19 24.654C17.5005 24.654 16.0623 24.0583 15.002 22.998C13.9417 21.9377 13.346 20.4995 13.346 19C13.346 17.5005 13.9417 16.0623 15.002 15.002ZM25.908 14.188C26.0381 14.0653 26.1423 13.9177 26.2143 13.754C26.2863 13.5903 26.3248 13.4138 26.3274 13.2349C26.33 13.0561 26.2967 12.8785 26.2295 12.7128C26.1622 12.5471 26.0624 12.3965 25.936 12.27C25.8095 12.1436 25.6589 12.0438 25.4932 11.9765C25.3275 11.9093 25.1499 11.876 24.9711 11.8786C24.7922 11.8812 24.6157 11.9197 24.452 11.9917C24.2883 12.0637 24.1407 12.1679 24.018 12.298C23.7793 12.551 23.6486 12.8871 23.6537 13.2349C23.6588 13.5827 23.7992 13.9149 24.0452 14.1608C24.2911 14.4068 24.6233 14.5472 24.9711 14.5523C25.3189 14.5574 25.655 14.4267 25.908 14.188Z" fill="#031A40"/>
</svg>
