<svg width="40" height="40" viewBox="0 0 40 40" fill="none" xmlns="http://www.w3.org/2000/svg">
<circle cx="20" cy="20" r="20" fill="white"/>
<path d="M30 13.7793C29.3013 14.0799 28.5507 14.2831 27.7616 14.3749C28.5758 13.9018 29.1849 13.1572 29.4753 12.28C28.7104 12.7212 27.8732 13.0318 27.0001 13.1982C26.413 12.5895 25.6354 12.186 24.7879 12.0504C23.9405 11.9148 23.0707 12.0547 22.3135 12.4484C21.5563 12.8421 20.9542 13.4675 20.6005 14.2276C20.2469 14.9877 20.1616 15.8399 20.3577 16.6519C18.8078 16.5764 17.2915 16.1851 15.9073 15.5036C14.523 14.8221 13.3019 13.8655 12.323 12.696C11.9882 13.2568 11.7958 13.9069 11.7958 14.5992C11.7954 15.2225 11.9535 15.8362 12.2559 16.386C12.5584 16.9357 12.9959 17.4045 13.5296 17.7506C12.9106 17.7315 12.3053 17.5691 11.764 17.2768V17.3256C11.7639 18.1998 12.0753 19.0471 12.6453 19.7237C13.2152 20.4003 14.0087 20.8646 14.891 21.0377C14.3168 21.1886 13.7148 21.2109 13.1305 21.1027C13.3794 21.8549 13.8643 22.5127 14.5173 22.9839C15.1703 23.4551 15.9587 23.7163 16.7721 23.7308C15.3913 24.7835 13.686 25.3545 11.9305 25.352C11.6195 25.3521 11.3088 25.3344 11 25.2992C12.7819 26.4118 14.8562 27.0023 16.9746 27C24.1459 27 28.0662 21.2319 28.0662 16.2294C28.0662 16.0668 28.062 15.9027 28.0545 15.7402C28.817 15.2046 29.4753 14.5414 29.9983 13.7817L30 13.7793Z" fill="#031A40"/>
</svg>
