<svg width="40" height="40" viewBox="0 0 40 40" fill="none" xmlns="http://www.w3.org/2000/svg">
<circle cx="20" cy="20" r="20" fill="white"/>
<path d="M28.6231 15.8837C28.5212 15.5202 28.3227 15.1911 28.0487 14.9313C27.7669 14.6636 27.4216 14.4721 27.0453 14.3749C25.637 14.0037 19.9948 14.0037 19.9948 14.0037C17.6426 13.977 15.291 14.0947 12.9532 14.3562C12.5769 14.4606 12.2322 14.6563 11.9498 14.9261C11.6724 15.1931 11.4714 15.5223 11.3664 15.883C11.1142 17.2416 10.9917 18.6211 11.0005 20.0029C10.9915 21.3835 11.1137 22.7625 11.3664 24.1229C11.4691 24.4821 11.6694 24.8098 11.9476 25.0745C12.2258 25.3392 12.5723 25.5304 12.9532 25.6317C14.3803 26.0021 19.9948 26.0021 19.9948 26.0021C22.3499 26.0289 24.7045 25.9112 27.0453 25.6497C27.4216 25.5524 27.7669 25.3609 28.0487 25.0932C28.3261 24.8285 28.5234 24.4993 28.6223 24.1409C28.8811 22.7828 29.007 21.4027 28.998 20.0202C29.0175 18.6318 28.8918 17.2452 28.6231 15.883V15.8837ZM18.201 22.5706V17.436L22.8954 20.0037L18.201 22.5706Z" fill="#031A40"/>
</svg>
