<svg width="56" height="184" viewBox="0 0 56 184" fill="none" xmlns="http://www.w3.org/2000/svg">
<rect width="56" height="184" fill="#FEE600"/>
<path d="M23.362 133.968H27.196V127.884H29.176V133.968H34V136.308H21.4V127.11H23.362V133.968ZM29.248 116.291C29.404 116.291 29.626 116.303 29.914 116.327V123.869C30.622 123.737 31.186 123.395 31.606 122.843C32.014 122.279 32.218 121.583 32.218 120.755C32.218 119.699 31.87 118.829 31.174 118.145L32.56 116.939C33.076 117.371 33.466 117.917 33.73 118.577C33.994 119.237 34.126 119.981 34.126 120.809C34.126 121.865 33.916 122.795 33.496 123.599C33.076 124.403 32.494 125.027 31.75 125.471C30.994 125.903 30.142 126.119 29.194 126.119C28.258 126.119 27.418 125.909 26.674 125.489C25.918 125.057 25.33 124.463 24.91 123.707C24.49 122.951 24.28 122.099 24.28 121.151C24.28 120.215 24.49 119.381 24.91 118.649C25.318 117.905 25.9 117.329 26.656 116.921C27.4 116.501 28.264 116.291 29.248 116.291ZM26.08 121.151C26.08 121.871 26.296 122.483 26.728 122.987C27.148 123.479 27.712 123.779 28.42 123.887V118.433C27.724 118.529 27.16 118.823 26.728 119.315C26.296 119.807 26.08 120.419 26.08 121.151ZM29.248 105.093C29.404 105.093 29.626 105.105 29.914 105.129V112.671C30.622 112.539 31.186 112.197 31.606 111.645C32.014 111.081 32.218 110.385 32.218 109.557C32.218 108.501 31.87 107.631 31.174 106.947L32.56 105.741C33.076 106.173 33.466 106.719 33.73 107.379C33.994 108.039 34.126 108.783 34.126 109.611C34.126 110.667 33.916 111.597 33.496 112.401C33.076 113.205 32.494 113.829 31.75 114.273C30.994 114.705 30.142 114.921 29.194 114.921C28.258 114.921 27.418 114.711 26.674 114.291C25.918 113.859 25.33 113.265 24.91 112.509C24.49 111.753 24.28 110.901 24.28 109.953C24.28 109.017 24.49 108.183 24.91 107.451C25.318 106.707 25.9 106.131 26.656 105.723C27.4 105.303 28.264 105.093 29.248 105.093ZM26.08 109.953C26.08 110.673 26.296 111.285 26.728 111.789C27.148 112.281 27.712 112.581 28.42 112.689V107.235C27.724 107.331 27.16 107.625 26.728 108.117C26.296 108.609 26.08 109.221 26.08 109.953ZM20.644 93.5182H34V95.6782H32.758C33.214 96.0502 33.556 96.5122 33.784 97.0642C34.012 97.6042 34.126 98.2042 34.126 98.8642C34.126 99.7882 33.922 100.622 33.514 101.366C33.106 102.098 32.53 102.674 31.786 103.094C31.03 103.514 30.166 103.724 29.194 103.724C28.222 103.724 27.364 103.514 26.62 103.094C25.876 102.674 25.3 102.098 24.892 101.366C24.484 100.622 24.28 99.7882 24.28 98.8642C24.28 98.2282 24.388 97.6462 24.604 97.1182C24.82 96.5902 25.144 96.1402 25.576 95.7682H20.644V93.5182ZM32.2 98.5942C32.2 98.0542 32.08 97.5682 31.84 97.1362C31.588 96.7042 31.234 96.3622 30.778 96.1102C30.322 95.8582 29.794 95.7322 29.194 95.7322C28.594 95.7322 28.066 95.8582 27.61 96.1102C27.154 96.3622 26.806 96.7042 26.566 97.1362C26.314 97.5682 26.188 98.0542 26.188 98.5942C26.188 99.1342 26.314 99.6202 26.566 100.052C26.806 100.484 27.154 100.826 27.61 101.078C28.066 101.33 28.594 101.456 29.194 101.456C29.794 101.456 30.322 101.33 30.778 101.078C31.234 100.826 31.588 100.484 31.84 100.052C32.08 99.6202 32.2 99.1342 32.2 98.5942ZM24.28 85.2468C24.28 84.3108 24.484 83.4768 24.892 82.7448C25.3 82.0008 25.876 81.4188 26.62 80.9988C27.364 80.5788 28.222 80.3688 29.194 80.3688C30.166 80.3688 31.03 80.5788 31.786 80.9988C32.53 81.4188 33.106 82.0008 33.514 82.7448C33.922 83.4768 34.126 84.3108 34.126 85.2468C34.126 85.9068 34.012 86.5128 33.784 87.0648C33.556 87.6048 33.214 88.0608 32.758 88.4328H34V90.5748H20.644V88.3248H25.558C25.138 87.9408 24.82 87.4908 24.604 86.9748C24.388 86.4468 24.28 85.8708 24.28 85.2468ZM32.2 85.4988C32.2 84.6708 31.924 83.9928 31.372 83.4648C30.82 82.9248 30.094 82.6548 29.194 82.6548C28.294 82.6548 27.568 82.9248 27.016 83.4648C26.464 83.9928 26.188 84.6708 26.188 85.4988C26.188 86.0388 26.314 86.5248 26.566 86.9568C26.806 87.3888 27.154 87.7308 27.61 87.9828C28.066 88.2348 28.594 88.3608 29.194 88.3608C29.794 88.3608 30.322 88.2348 30.778 87.9828C31.234 87.7308 31.588 87.3888 31.84 86.9568C32.08 86.5248 32.2 86.0388 32.2 85.4988ZM24.28 74.686C24.28 73.27 24.622 72.19 25.306 71.446C25.978 70.69 26.998 70.312 28.366 70.312H34V72.436H32.83C33.25 72.712 33.574 73.108 33.802 73.624C34.018 74.128 34.126 74.74 34.126 75.46C34.126 76.18 34.006 76.81 33.766 77.35C33.514 77.89 33.172 78.31 32.74 78.61C32.296 78.898 31.798 79.042 31.246 79.042C30.382 79.042 29.692 78.724 29.176 78.088C28.648 77.44 28.384 76.426 28.384 75.046V72.562H28.24C27.568 72.562 27.052 72.766 26.692 73.174C26.332 73.57 26.152 74.164 26.152 74.956C26.152 75.496 26.236 76.03 26.404 76.558C26.572 77.074 26.806 77.512 27.106 77.872L25.468 78.754C25.084 78.25 24.79 77.644 24.586 76.936C24.382 76.228 24.28 75.478 24.28 74.686ZM32.488 74.992C32.488 74.428 32.362 73.93 32.11 73.498C31.846 73.054 31.474 72.742 30.994 72.562H29.878V74.884C29.878 76.18 30.304 76.828 31.156 76.828C31.564 76.828 31.888 76.666 32.128 76.342C32.368 76.018 32.488 75.568 32.488 74.992ZM34.126 62.9265C34.126 63.9225 33.916 64.8165 33.496 65.6085C33.076 66.4005 32.494 67.0185 31.75 67.4625C30.994 67.9065 30.142 68.1285 29.194 68.1285C28.246 68.1285 27.4 67.9065 26.656 67.4625C25.912 67.0185 25.33 66.4065 24.91 65.6265C24.49 64.8345 24.28 63.9345 24.28 62.9265C24.28 61.9785 24.472 61.1505 24.856 60.4425C25.24 59.7225 25.792 59.1825 26.512 58.8225L27.52 60.5505C27.076 60.8265 26.746 61.1745 26.53 61.5945C26.302 62.0025 26.188 62.4525 26.188 62.9445C26.188 63.7845 26.464 64.4805 27.016 65.0325C27.556 65.5845 28.282 65.8605 29.194 65.8605C30.106 65.8605 30.838 65.5905 31.39 65.0505C31.93 64.4985 32.2 63.7965 32.2 62.9445C32.2 62.4525 32.092 62.0025 31.876 61.5945C31.648 61.1745 31.312 60.8265 30.868 60.5505L31.876 58.8225C32.596 59.1945 33.154 59.7405 33.55 60.4605C33.934 61.1685 34.126 61.9905 34.126 62.9265ZM29.878 53.0414L31.462 54.7154H34V56.9654H20.644V54.7154H28.708L24.388 50.0534V47.3534L28.42 51.3674L34 46.9754V49.7114L29.878 53.0414Z" fill="#031A40"/>
</svg>
