<svg width="254" height="46" viewBox="0 0 254 46" fill="none" xmlns="http://www.w3.org/2000/svg">
<path d="M80.7742 24.485L75.7692 29.56V36H73.1792V11.5H75.7692V26.305L90.1542 11.5H93.1292L82.5242 22.595L93.8642 36H90.7842L80.7742 24.485ZM98.062 11.5H100.652V36H98.062V11.5ZM113.384 13.74H104.774V11.5H124.584V13.74H115.974V36H113.384V13.74ZM135.1 36.21C133.28 36.21 131.53 35.9183 129.85 35.335C128.194 34.7517 126.91 33.9817 126 33.025L127.015 31.03C127.902 31.9167 129.08 32.64 130.55 33.2C132.02 33.7367 133.537 34.005 135.1 34.005C137.294 34.005 138.939 33.6083 140.035 32.815C141.132 31.9983 141.68 30.9483 141.68 29.665C141.68 28.685 141.377 27.9033 140.77 27.32C140.187 26.7367 139.464 26.2933 138.6 25.99C137.737 25.6633 136.535 25.3133 134.995 24.94C133.152 24.4733 131.682 24.03 130.585 23.61C129.489 23.1667 128.544 22.5017 127.75 21.615C126.98 20.7283 126.595 19.5267 126.595 18.01C126.595 16.7733 126.922 15.6533 127.575 14.65C128.229 13.6233 129.232 12.8067 130.585 12.2C131.939 11.5933 133.619 11.29 135.625 11.29C137.025 11.29 138.39 11.4883 139.72 11.885C141.074 12.2583 142.24 12.7833 143.22 13.46L142.345 15.525C141.319 14.8483 140.222 14.3467 139.055 14.02C137.889 13.67 136.745 13.495 135.625 13.495C133.479 13.495 131.857 13.915 130.76 14.755C129.687 15.5717 129.15 16.6333 129.15 17.94C129.15 18.92 129.442 19.7133 130.025 20.32C130.632 20.9033 131.379 21.3583 132.265 21.685C133.175 21.9883 134.389 22.3267 135.905 22.7C137.702 23.1433 139.149 23.5867 140.245 24.03C141.365 24.45 142.31 25.1033 143.08 25.99C143.85 26.8533 144.235 28.0317 144.235 29.525C144.235 30.7617 143.897 31.8933 143.22 32.92C142.567 33.9233 141.552 34.7283 140.175 35.335C138.799 35.9183 137.107 36.21 135.1 36.21ZM167.553 33.76V36H147.463V34.215L163.703 13.74H147.708V11.5H167.133V13.285L150.928 33.76H167.553ZM183.079 36.21C180.652 36.21 178.447 35.6733 176.464 34.6C174.504 33.5033 172.964 32.01 171.844 30.12C170.747 28.23 170.199 26.1067 170.199 23.75C170.199 21.3933 170.747 19.27 171.844 17.38C172.964 15.49 174.504 14.0083 176.464 12.935C178.447 11.8383 180.652 11.29 183.079 11.29C185.505 11.29 187.687 11.8267 189.624 12.9C191.584 13.9733 193.124 15.4667 194.244 17.38C195.364 19.27 195.924 21.3933 195.924 23.75C195.924 26.1067 195.364 28.2417 194.244 30.155C193.124 32.045 191.584 33.5267 189.624 34.6C187.687 35.6733 185.505 36.21 183.079 36.21ZM183.079 33.9C185.015 33.9 186.765 33.4683 188.329 32.605C189.892 31.7183 191.117 30.505 192.004 28.965C192.89 27.4017 193.334 25.6633 193.334 23.75C193.334 21.8367 192.89 20.11 192.004 18.57C191.117 17.0067 189.892 15.7933 188.329 14.93C186.765 14.0433 185.015 13.6 183.079 13.6C181.142 13.6 179.38 14.0433 177.794 14.93C176.23 15.7933 174.994 17.0067 174.084 18.57C173.197 20.11 172.754 21.8367 172.754 23.75C172.754 25.6633 173.197 27.4017 174.084 28.965C174.994 30.505 176.23 31.7183 177.794 32.605C179.38 33.4683 181.142 33.9 183.079 33.9ZM222.204 11.5V36H220.069L204.319 16.12V36H201.729V11.5H203.864L219.649 31.38V11.5H222.204ZM247.526 33.76V36H230.201V11.5H247.001V13.74H232.791V22.455H245.461V24.66H232.791V33.76H247.526Z" fill="white"/>
<path d="M6.5064 6.44889L16.6458 1H30.165L40.3044 6.44889L44.8108 22.7956L35.798 29.3342V44.5911H11.0128V29.3342L2 22.7956L6.5064 6.44889Z" stroke="white" stroke-width="2"/>
<path d="M11.0128 30.4239V22.7954" stroke="white" stroke-width="2"/>
<path d="M35.798 30.4239V22.7954" stroke="white" stroke-width="2"/>
</svg>
