<svg width="214" height="40" viewBox="0 0 214 40" fill="none" xmlns="http://www.w3.org/2000/svg">
<path d="M68.18 20.63L63.89 24.98V30.5H61.67V9.5H63.89V22.19L76.22 9.5H78.77L69.68 19.01L79.4 30.5H76.76L68.18 20.63ZM82.9981 9.5H85.2181V30.5H82.9981V9.5ZM96.1309 11.42H88.7509V9.5H105.731V11.42H98.3509V30.5H96.1309V11.42ZM114.745 30.68C113.185 30.68 111.685 30.43 110.245 29.93C108.825 29.43 107.725 28.77 106.945 27.95L107.815 26.24C108.575 27 109.585 27.62 110.845 28.1C112.105 28.56 113.405 28.79 114.745 28.79C116.625 28.79 118.035 28.45 118.975 27.77C119.915 27.07 120.385 26.17 120.385 25.07C120.385 24.23 120.125 23.56 119.605 23.06C119.105 22.56 118.485 22.18 117.745 21.92C117.005 21.64 115.975 21.34 114.655 21.02C113.075 20.62 111.815 20.24 110.875 19.88C109.935 19.5 109.125 18.93 108.445 18.17C107.785 17.41 107.455 16.38 107.455 15.08C107.455 14.02 107.735 13.06 108.295 12.2C108.855 11.32 109.715 10.62 110.875 10.1C112.035 9.58 113.475 9.32 115.195 9.32C116.395 9.32 117.565 9.49 118.705 9.83C119.865 10.15 120.865 10.6 121.705 11.18L120.955 12.95C120.075 12.37 119.135 11.94 118.135 11.66C117.135 11.36 116.155 11.21 115.195 11.21C113.355 11.21 111.965 11.57 111.025 12.29C110.105 12.99 109.645 13.9 109.645 15.02C109.645 15.86 109.895 16.54 110.395 17.06C110.915 17.56 111.555 17.95 112.315 18.23C113.095 18.49 114.135 18.78 115.435 19.1C116.975 19.48 118.215 19.86 119.155 20.24C120.115 20.6 120.925 21.16 121.585 21.92C122.245 22.66 122.575 23.67 122.575 24.95C122.575 26.01 122.285 26.98 121.705 27.86C121.145 28.72 120.275 29.41 119.095 29.93C117.915 30.43 116.465 30.68 114.745 30.68ZM142.562 28.58V30.5H125.342V28.97L139.262 11.42H125.552V9.5H142.202V11.03L128.312 28.58H142.562ZM155.87 30.68C153.79 30.68 151.9 30.22 150.2 29.3C148.52 28.36 147.2 27.08 146.24 25.46C145.3 23.84 144.83 22.02 144.83 20C144.83 17.98 145.3 16.16 146.24 14.54C147.2 12.92 148.52 11.65 150.2 10.73C151.9 9.79 153.79 9.32 155.87 9.32C157.95 9.32 159.82 9.78 161.48 10.7C163.16 11.62 164.48 12.9 165.44 14.54C166.4 16.16 166.88 17.98 166.88 20C166.88 22.02 166.4 23.85 165.44 25.49C164.48 27.11 163.16 28.38 161.48 29.3C159.82 30.22 157.95 30.68 155.87 30.68ZM155.87 28.7C157.53 28.7 159.03 28.33 160.37 27.59C161.71 26.83 162.76 25.79 163.52 24.47C164.28 23.13 164.66 21.64 164.66 20C164.66 18.36 164.28 16.88 163.52 15.56C162.76 14.22 161.71 13.18 160.37 12.44C159.03 11.68 157.53 11.3 155.87 11.3C154.21 11.3 152.7 11.68 151.34 12.44C150 13.18 148.94 14.22 148.16 15.56C147.4 16.88 147.02 18.36 147.02 20C147.02 21.64 147.4 23.13 148.16 24.47C148.94 25.79 150 26.83 151.34 27.59C152.7 28.33 154.21 28.7 155.87 28.7ZM189.406 9.5V30.5H187.576L174.076 13.46V30.5H171.856V9.5H173.686L187.216 26.54V9.5H189.406ZM211.11 28.58V30.5H196.26V9.5H210.66V11.42H198.48V18.89H209.34V20.78H198.48V28.58H211.11Z" fill="#031A40"/>
<path d="M5.53947 6.08202L14.0658 1.5H25.4342L33.9605 6.08202L37.75 19.8281L30.1711 25.3265V38.1562H9.32895V25.3265L1.75 19.8281L5.53947 6.08202Z" stroke="#031A40" stroke-width="2"/>
<path d="M9.32892 26.2429V19.8281" stroke="#031A40" stroke-width="2"/>
<path d="M30.1711 26.2429V19.8281" stroke="#031A40" stroke-width="2"/>
</svg>
